<?xml version="1.0" encoding="UTF-8"?>
<svg id="Layer_2" data-name="Layer 2" xmlns="http://www.w3.org/2000/svg" viewBox="0 0 115.68 118.97">
  <defs>
    <style>
      .cls-1 {
        fill: #4a7fbf;
      }
    </style>
  </defs>
  <g id="Layer_1-2" data-name="Layer 1">
    <g>
      <path class="cls-1" d="M28.99,116.69s.03,0,.04,0c-.01,0-.03,0-.04,0Z"/>
      <path class="cls-1" d="M5.56,103.19l-.07-.09s.05.06.07.09Z"/>
      <path class="cls-1" d="M115.51,72.53v-3.62s-.08-1.58-.08-1.58l-.14-1.87-.62-4.54-.57-3.09-.93-3.79-.79-2.82c-1.36-4.31-3.1-8.44-5.16-12.45l-1.62-3s-.06-.1-.05-.14l-.51-.88-.08-.12-1.52-2.49-2.89-4.27-.72-1.02s.01-.04,0-.05c-.09-.02-.13-.09-.2-.18l-4.02-4.94c-3.07-3.49-6.42-6.68-10.09-9.55-5.31-4.16-11.21-7.48-17.58-9.72-2.26-.79-4.53-1.46-6.9-1.78l-2.73-.36-.71-.07-.87-.07-1.55-.04c-.5-.01-.98-.01-1.48,0l-1.55.04-.73.06-2.26.25c-2.72.3-5.31,1-7.89,1.92l-3.54,1.41s-.04,0-.06,0c-1.55.72-3.07,1.53-4.53,2.43-.01,0-.04,0-.05,0-2.69,1.65-5.2,3.58-7.56,5.66,0,.02-.04.04-.03.06l-1.23,1.17c-3.55,3.51-6.61,7.41-9.26,11.65-1.32,2.12-2.5,4.27-3.6,6.51-2.24,4.54-3.92,8.84-5.4,13.68-1.02,3.33-1.85,6.65-2.53,10.06l-.28,1.41c-.03.14-.05.27-.07.41l-1.08,6.64-1.09,7.51-.13,1.01-.35,3.23-.08.85-.06.87-.13,2.24-.07,1.37v4.08s.07,1.51.07,1.51l.07,1.08c.27,2.94.79,5.79,1.69,8.62.68,2.14,1.59,4.14,2.79,6.02,1.04,1.65,2.18,3.16,3.52,4.52.02.02.05.04.07.06l.08.08.08.06,1.85,1.67c1.34,1.09,2.72,2.01,4.2,2.9,1.3.79,2.57,1.45,3.97,2.05,2.08.9,4.18,1.66,6.36,2.3.11.03.19.04.23.12.02,0,.06.02.08-.02l1.98.54,1.23.34h.09c.14.01.36.06.54.1l2.82.62s.05.02.08-.02c3.3.58,6.62.96,9.98,1.28l1.17.06,1.89.11.87.06,1.47.05,2.51.08h8.73s2.23-.07,2.23-.07l1.19-.05,1.37-.07,1.07-.08.86-.06,2.65-.28,3.61-.48,3.77-.73,1.65-.37c2.64-.59,5.16-1.44,7.7-2.39,2.98-1.11,5.79-2.47,8.5-4.11l3.88-2.5s.04-.07.06-.09l2.15-1.66.06-.08c.19,0,.31-.14.45-.26l.43-.36c.17-.15.36-.24.42-.45l.07-.07c.15.04.22-.06.32-.18l.26-.32.07-.06,2.24-2.22s.03-.06.05-.08l.08-.07s.04-.05.07-.07l.22-.23s.04-.04.05-.06l1.23-1.37s.04-.05.06-.07c.16,0,.24-.12.33-.26l.62-.89.07-.13,1.06-1.46s.07-.07.1-.08l1.42-2.19c1.13-1.7,2.13-3.93,3.02-5.74,0,0,0-.02,0-.02,0-.02,0-.05,0-.1l1.36-3.65c.07-.19.06-.4.21-.5,0-.02.01-.06-.02-.08.53-1.69.89-3.4,1.22-5.18.44-2.38.71-4.7.79-7.13ZM73.92,63.28c-.17,2.34-.61,4.62-1.44,6.82-1.32,3.49-3.91,7.15-7.11,9.12l-1.55.95c-2.17,1.14-4.57,1.8-7.06,1.89h-2.15c-3.86-.22-7.38-1.82-10.19-4.44-4.55-4.24-6.48-10.87-5.85-16.98.48-4.67,1.84-8.74,4.53-12.61,1.7-2.45,3.89-4.52,6.51-5.95,4.04-2.21,8.83-2.45,12.99-.49l.71.37c3.5,1.82,6.17,4.78,7.92,8.29l.61,1.21c1.54,3.72,2.35,7.77,2.08,11.83Z"/>
      <path class="cls-1" d="M31.96,117.23c.03.23.27.15.4.17l.99.18.87.13.93.14.94.13,1.21.15,1.23.14,1.29.15,1.57.15,1.66.13,3.23.13.93.06c.27.02.52.07.8.07h12.3c.26,0,.48-.12.73-.07l.86-.06c.91.03,1.76-.05,2.65-.13l1.66-.14,1.22-.14,1.3-.14,1.28-.16c2.79-.35,5.5-.96,8.23-1.66l3.1-.92,1.13-.38,1.27-.45.74-.27,3.29-1.36,1.32-.61,1.18-.62.49-.24.46-.24.54-.32.67-.34.76-.51c.16-.11.37-.14.51-.29.12-.13.29-.14.42-.23l1.71-1.16,1.19-.88c-11.21,8.19-25.17,11.1-38.47,11.26-8.94.05-17.6.09-26.61-1.69Z"/>
      <path class="cls-1" d="M115.63,68.8l-.07-1-.14-2.23-.13-1.37-.15-1.15-.14-1-.53-3.02-1.08-4.78-.76-2.69-.96-2.84-2.08-5.23-.29-.64-.3-.7-.42-.95-.51-1-.68-1.4-.27-.5-.27-.54-.43-.79-.49-.89c-.08-.14-.11-.37-.32-.34l.07.04c3.93,6.8,6.83,14.45,8.47,22.02,1.23,5.68,1.8,11.76,1.23,17.65-.3,3.14-.89,6.38-1.87,9.37.17,0,.14-.16.17-.26l.29-.94.57-2.36.17-.93.14-.78.14-.86.14-.72.16-1.21.13-1.09.14-1.58.13-4.15-.06-1.15Z"/>
      <path class="cls-1" d="M.45,75.25c.45-4.88,1.26-9.99,2.08-14.88.2-1.17.42-2.34.64-3.51l.03-.19.04-.22c1.06-5.56,2.42-11.11,4.47-16.63,3.03-8.16,7.12-15.88,12.73-22.58,1.57-1.87,3.31-3.77,5.1-5.28-.19.04-.4.16-.55.34-.75.86-1.55,1.63-2.39,2.4l-.5.58c-.21.25-.42.44-.63.68l-.5.57-.56.66-2.37,2.99-1.17,1.63-1.16,1.72-.73,1.12-.59.98-.4.68c-.16.28-.3.55-.47.82-.82,1.31-1.44,2.67-2.13,4.04l-.94,1.87-1.43,3.28-1.12,2.83c-1.06,2.67-1.92,5.37-2.66,8.15l-.68,2.57-.35,1.36-.77,3.58-.56,2.88-.14.86-.11.75-.18,1.04-.15,1.06-.14.94-.14.79-.13.8-.15.92-.14.93-.14.93-.11.83-.27,1.96-.47,3.68-.17,1.48-.08.93-.08,1.15-.15,2.65c-.01.25-.12.52-.06.79.06.28-.06.54-.06.79v3.51s.08,1.07.08,1.07l.07,1.43.16,1.49.14,1.15.15.99.14.79.12.6.5,2.14.3,1.06.46,1.41,1.44,3.37.51.93.7,1.17.73,1.01C-.18,95-.4,84.48.45,75.25Z"/>
      <path class="cls-1" d="M6.73,104.78c.36.5.72.97,1.24,1.34l.34.31c-1.03-1.03-1.94-2.11-2.74-3.25l1.17,1.6Z"/>
      <path class="cls-1" d="M58.77.27c2.67.33,5.29.79,7.99,1.68,13.6,4.48,24.79,13.76,33.09,24.85-.09-.3-.31-.53-.52-.79l-1.49-1.87-.67-.83-1.12-1.32-.5-.58-.41-.45c-.13-.28-.44-.42-.63-.65-.2-.24-.38-.47-.6-.7l-.7-.74-.35-.36-1.58-1.56c-.27-.27-.52-.54-.81-.79l-.58-.5-.64-.57-.79-.72-2.67-2.2-2.45-1.84-.66-.49-.96-.62c-1.78-1.26-3.61-2.34-5.55-3.34l-2.04-1.05-1.72-.78-1.92-.8c-3.09-1.29-6.89-2.42-10.2-2.85l-1.27-.16c-.45-.06-.85-.08-1.3-.13l-.96-.11h-4.61s-.83.1-.83.1c-.51.06-.98.07-1.5.14l-.88.12-1.14.17c-3.4.61-6.69,1.63-9.83,3.05-.11.05-.15.13-.18.2,3.07-1.52,6.56-2.52,10.07-3.2,3.38-.66,7.58-.73,10.93-.31Z"/>
      <path class="cls-1" d="M9.56,107.74l1.97,1.55c1.57,1.24,3.27,2.2,5.04,3.13l1.8.86.68.31,1.96.78c1.23.49,2.44.91,3.72,1.23.14.04.29.15.42.08-6.05-1.72-12.28-4.62-16.62-9.04l1.03,1.11Z"/>
      <path class="cls-1" d="M29.31,116.79l.58.13,1.57.32h.42c-.96-.17-1.91-.36-2.86-.55.1.03.19.07.28.1Z"/>
      <path class="cls-1" d="M28.53,116.54s-.02.08,0,.1.1.07.13.06c.13-.05.24-.03.34,0-.14-.03-.27-.05-.41-.08l-.05-.07Z"/>
      <path class="cls-1" d="M25.5,115.82l1.18.34.47.11.58.15c.24.06.5.17.72.11-1.08-.23-2.19-.49-3.21-.88,0,.17.16.14.27.17Z"/>
      <path class="cls-1" d="M32.18,6.72l-1.09.71-.51.34-.83.61-1.19.89c-.31.23-.6.44-.9.69l-.9.75-.52.49c-.24.23-.58.39-.69.7,2.29-2.15,4.84-4.08,7.56-5.66-.21-.04-.51.21-.94.49Z"/>
      <path class="cls-1" d="M37.43,3.8l-2.75,1.4c-.46.24-.88.47-1.31.78-.1.07-.24.08-.19.24,1.39-.99,2.96-1.77,4.53-2.43-.06,0-.19-.04-.28,0Z"/>
      <path class="cls-1" d="M104.97,34.63c.06-.17-.03-.3-.12-.44l-.47-.76-1-1.57-1.11-1.75c-.15-.23-.28-.41-.44-.64l-.59-.85-.99-1.37c-.12-.16-.21-.35-.41-.4,1.61,2.13,3.11,4.34,4.49,6.63.26.37.47.75.64,1.16Z"/>
      <path class="cls-1" d="M112.15,88.93l.63-1.65.68-1.92c.05-.15.09-.3.07-.43-.46,1.43-.99,2.87-1.57,4.26.1-.03.15-.15.19-.26Z"/>
      <path class="cls-1" d="M105.39,35.15c-.09-.16-.12-.41-.34-.4.24.21.41.58.51.88.05-.18-.08-.31-.17-.48Z"/>
      <path class="cls-1" d="M101.35,104.14s.11-.01.16-.06l1.81-1.77c.13-.13.22-.25.27-.4-.68.79-1.46,1.53-2.24,2.22Z"/>
      <path class="cls-1" d="M104.05,101.41c.39-.19.62-.56.91-.91.13-.15.33-.24.32-.47-.36.49-.77.97-1.23,1.37Z"/>
      <path class="cls-1" d="M107.89,96.7l1.18-1.76.37-.63.31-.54.42-.74.38-.76.85-1.65.45-1c.06-.14.15-.25.12-.39-1.21,2.79-2.69,5.55-4.44,7.93.18-.09.26-.27.38-.44Z"/>
      <path class="cls-1" d="M97.58,107.33l.5-.36.83-.67c.15-.12.3-.2.35-.38-.66.61-1.39,1.18-2.15,1.66.19,0,.3-.13.47-.25Z"/>
      <path class="cls-1" d="M106.79,98.19c.25-.31.54-.58.62-.96-.28.53-.67,1.01-1.06,1.46.25-.05.29-.32.44-.49Z"/>
    </g>
  </g>
</svg>